<svg width="22" height="21" viewBox="0 0 22 21" fill="none" xmlns="http://www.w3.org/2000/svg">
<path d="M11 15.0217C7.41015 15.0217 4.5 12.1116 4.5 8.52173V2.57728C4.5 2.05912 4.5 1.80003 4.59369 1.59911C4.69305 1.38603 4.86431 1.21478 5.07738 1.11542C5.27831 1.02173 5.53739 1.02173 6.05556 1.02173H15.9444C16.4626 1.02173 16.7217 1.02173 16.9226 1.11542C17.1357 1.21478 17.3069 1.38603 17.4063 1.59911C17.5 1.80003 17.5 2.05912 17.5 2.57728V8.52173C17.5 12.1116 14.5899 15.0217 11 15.0217ZM11 15.0217V19.0217M16 19.0217H6M21 3.02173V8.02173M1 3.02173V8.02173" stroke="#292929" stroke-width="2" stroke-linecap="round" stroke-linejoin="round"/>
</svg>
