<svg width="90" height="66" viewBox="0 0 90 66" fill="none" xmlns="http://www.w3.org/2000/svg">
<path d="M7.26848 0.153891C6.11272 0.590511 4.77717 2.85067 4.05803 5.65018C3.49299 7.75624 3.67277 12.0711 4.36623 13.9717C5.08537 15.9493 5.95862 17.439 6.36955 17.439C6.57502 17.439 6.90891 17.1051 7.14006 16.6941C7.93626 15.1274 10.1194 12.8159 12.02 11.5574C14.3315 10.0164 16.7971 9.22021 19.8021 9.01474C20.9579 8.96337 21.9082 8.78359 21.9082 8.68085C21.9082 8.01308 20.5212 6.03544 18.9545 4.44305C16.6173 2.10585 13.7921 0.64188 10.7871 0.256624C8.62971 -0.0515785 7.88489 -0.0772629 7.26848 0.153891Z" fill="#F7A121"/>
<path d="M77.5133 0.59054C75.2274 1.15558 72.4536 2.61955 70.8099 4.16056C69.012 5.83 67.7535 7.49943 67.959 8.01311C68.036 8.24426 68.7038 8.44973 69.7825 8.55246C71.7345 8.75793 74.5853 9.65686 76.152 10.5815C78.4379 11.917 80.6724 14.3056 81.8795 16.6685C82.727 18.3379 83.1637 18.2095 84.3451 15.8723C85.3468 13.8433 86.1173 10.8383 86.1173 8.86067C86.1173 5.80432 84.2424 0.718958 82.9582 0.385071C82.0079 0.128235 78.8745 0.256653 77.5133 0.59054Z" fill="#F7A121"/>
<path d="M22.165 24.0397C19.648 24.4763 15.7441 26.1971 12.662 28.2518C8.88654 30.7174 3.10772 36.0083 0.642091 39.2187L0 40.0406L0.719142 41.0679C2.49131 43.6363 10.5046 50.7507 13.7664 52.6769C17.2851 54.7316 21.2404 56.1442 23.8344 56.2726C26.7623 56.401 26.8137 56.3754 28.0722 54.5005C29.305 52.6512 33.9538 47.797 35.6489 46.5642C36.2139 46.1533 36.7276 45.768 36.8046 45.6653C36.8817 45.5882 37.6522 45.0746 38.5255 44.5352C39.4244 43.9959 40.2719 43.4051 40.426 43.2254C40.8627 42.686 40.7599 37.8832 40.2719 36.0596C38.32 28.7398 31.6936 23.7315 24.2197 23.8856C23.4492 23.9113 22.5245 23.9883 22.165 24.0397Z" fill="#F7A121"/>
<path d="M62.2314 24.1425C54.2438 25.6835 48.3623 33.2345 48.9787 41.1964C49.1328 43.2254 48.9016 42.9686 52.5487 45.4856C55.7848 47.7457 59.1751 51.1103 61.7177 54.5776C62.7451 56.0158 62.9762 56.1956 63.9779 56.324C67.5993 56.812 73.3524 54.6803 78.4121 50.9562C80.3384 49.5436 80.5952 49.3381 82.239 47.8998C86.1943 44.4582 89.4561 40.8882 89.4561 40.0149C89.4561 39.1931 84.3707 33.9279 80.8521 31.077C77.5646 28.4316 73.6606 25.9917 71.195 25.0671C68.3441 23.9884 64.8768 23.6288 62.2314 24.1425Z" fill="#F7A121"/>
<path d="M43.8163 53.5502C42.6862 54.1152 40.272 56.5808 39.7326 57.7109C38.6025 60.1252 38.243 63.2843 39.0648 64.0034C39.6812 64.5684 41.6075 65.3646 43.3026 65.7242C44.4327 65.981 45.0748 65.981 46.2819 65.7499C48.5164 65.3133 50.6225 64.3116 50.982 63.5411C51.393 62.6165 50.905 59.6629 50.0574 57.9164C49.2612 56.2726 47.4634 54.372 46.0508 53.6529C44.8437 53.0365 44.8693 53.0365 43.8163 53.5502Z" fill="#F7A121"/>
</svg>
