<svg width="20" height="19" viewBox="0 0 20 19" fill="none" xmlns="http://www.w3.org/2000/svg">
<path d="M9.11555 1.69807C9.49076 0.986923 10.5092 0.986921 10.8844 1.69807L12.827 5.37995C12.9717 5.6542 13.2355 5.84581 13.541 5.89867L17.643 6.60842C18.4352 6.7455 18.75 7.71414 18.1896 8.29074L15.2882 11.276C15.0721 11.4984 14.9713 11.8084 15.0155 12.1153L15.6081 16.2358C15.7225 17.0317 14.8985 17.6304 14.177 17.2756L10.4412 15.4387C10.163 15.3019 9.83701 15.3019 9.55875 15.4387L5.82301 17.2756C5.10146 17.6304 4.27749 17.0317 4.39194 16.2358L4.98451 12.1153C5.02865 11.8084 4.92792 11.4984 4.71181 11.276L1.81042 8.29074C1.25002 7.71414 1.56475 6.7455 2.35704 6.60842L6.45901 5.89867C6.76455 5.84581 7.02827 5.6542 7.17297 5.37995L9.11555 1.69807Z" stroke="#292929" stroke-width="2" stroke-linecap="round" stroke-linejoin="round"/>
</svg>
