<svg width="159" height="85" viewBox="0 0 159 85" fill="none" xmlns="http://www.w3.org/2000/svg">
<path d="M13.9042 26.6986C15.1729 26.6986 15.9341 25.9374 15.9341 25.1762C15.9341 22.6388 2.23222 22.6388 2.23222 11.4744C2.23222 5.63838 7.81446 0.0561523 16.6953 0.0561523C25.8299 0.0561523 30.3971 5.63838 30.3971 5.63838L25.5761 13.2505C25.5761 13.2505 22.5313 10.4594 18.9789 10.4594C17.7102 10.4594 16.949 11.2206 16.949 11.9818C16.949 14.5192 30.6509 14.5192 30.6509 25.6837C30.6509 31.5196 25.0686 37.1019 16.1878 37.1019C5.02334 37.1019 0.456055 31.0122 0.456055 31.0122L5.27708 23.4C5.27708 23.4 8.82941 26.6986 13.9042 26.6986Z" fill="#292929"/>
<path d="M69.7265 8.68324C74.8013 8.68324 78.8611 12.743 78.8611 22.1313V36.3407H66.6817V22.1313C66.6817 20.1014 65.6667 19.0865 64.6518 19.0865C63.6368 19.0865 62.6219 20.1014 62.6219 22.1313V36.3407H50.4424V22.1313C50.4424 20.1014 49.4275 19.0865 48.4125 19.0865C47.3976 19.0865 46.3826 20.1014 46.3826 22.1313V36.3407H34.2032V9.44445H45.8752L46.8901 12.4893C46.8901 12.4893 48.92 8.68324 53.9948 8.68324C59.0695 8.68324 61.6069 13.5043 61.6069 13.5043C61.6069 13.5043 64.6518 8.68324 69.7265 8.68324Z" fill="#292929"/>
<path d="M95.3402 8.68324C103.967 8.68324 110.311 15.0267 110.311 22.8926C110.311 27.2568 110.311 32.3824 110.311 36.3407H98.6388L97.6238 33.2958C97.6238 33.2958 95.5939 37.1019 91.0266 37.1019C85.4444 37.1019 81.8921 33.5495 81.8921 28.7285C81.8921 23.9075 85.4444 20.3552 94.0715 20.3552H98.1313C98.1313 20.3552 97.6238 17.5641 93.564 17.5641C91.0266 17.5641 88.9967 19.594 88.9967 19.594L84.6832 12.743C84.6832 12.743 88.4893 8.68324 95.3402 8.68324ZM95.5939 28.9823C96.8626 28.9823 98.1313 27.7136 98.1313 24.6687C95.3402 24.6687 94.0715 25.9374 94.0715 27.4598C94.0715 28.2211 94.8327 28.9823 95.5939 28.9823Z" fill="#292929"/>
<path d="M127.571 12.4893C127.571 12.4893 129.601 8.68324 133.661 8.68324C135.69 8.68324 137.213 9.44445 137.213 9.44445L135.183 20.6089C135.183 20.6089 133.153 19.594 131.631 19.594C129.093 19.594 127.063 21.6239 127.063 25.1762V36.3407H114.884V9.44445H126.556L127.571 12.4893Z" fill="#292929"/>
<path d="M141.297 19.594H137.744V9.44445H141.297V0.817365H153.476V9.44445H158.043V19.594H153.476V23.9075C153.476 25.9374 154.491 26.9524 156.013 26.9524C157.028 26.9524 158.043 26.6986 158.043 26.6986V36.8481C158.043 36.8481 156.013 37.3556 153.476 37.3556C145.864 37.3556 141.297 32.7883 141.297 23.9075V19.594Z" fill="#292929"/>
<path d="M19.2327 68.7975V65.7527C19.2327 65.7527 17.2028 69.5587 12.128 69.5587C6.54577 69.5587 1.47101 64.484 1.47101 55.8569C1.47101 47.2298 6.54577 42.155 12.128 42.155C17.2028 42.155 19.2327 45.9611 19.2327 45.9611L20.2476 42.9162H31.4121V68.7975C31.4121 77.1709 24.5612 84.0218 15.9341 84.0218C8.57567 84.0218 4.51586 79.7082 4.51586 79.7082L9.59062 71.5886C9.59062 71.5886 11.6205 73.6185 14.1579 73.6185C17.2028 73.6185 19.2327 71.5886 19.2327 68.7975ZM14.1579 55.8569C14.1579 57.8868 15.4266 59.1555 16.949 59.1555C18.4715 59.1555 19.7401 57.8868 19.7401 55.8569C19.7401 53.827 18.4715 52.5583 16.949 52.5583C15.4266 52.5583 14.1579 53.827 14.1579 55.8569Z" fill="#292929"/>
<path d="M45.6175 70.5737C40.5427 70.5737 36.4829 66.5139 36.4829 57.1256V42.9162H48.6623V57.1256C48.6623 59.1555 49.6773 60.1704 50.6922 60.1704C51.7072 60.1704 52.7221 59.1555 52.7221 57.1256V42.9162H64.9016V69.8125H53.2296L52.2146 66.7676C52.2146 66.7676 50.1847 70.5737 45.6175 70.5737Z" fill="#292929"/>
<path d="M82.6711 45.9611C82.6711 45.9611 84.701 42.155 88.7609 42.155C90.7908 42.155 92.3132 42.9162 92.3132 42.9162L90.2833 54.0807C90.2833 54.0807 88.2534 53.0658 86.7309 53.0658C84.1936 53.0658 82.1637 55.0957 82.1637 58.648V69.8125H69.9842V42.9162H81.6562L82.6711 45.9611Z" fill="#292929"/>
<path d="M103.501 70.5737C98.4267 70.5737 94.3669 66.5139 94.3669 57.1256V42.9162H106.546V57.1256C106.546 59.1555 107.561 60.1704 108.576 60.1704C109.591 60.1704 110.606 59.1555 110.606 57.1256V42.9162H122.786V69.8125H111.114L110.099 66.7676C110.099 66.7676 108.069 70.5737 103.501 70.5737Z" fill="#292929"/>
</svg>
